Coordinates
version=1
nRows=12
nColumns=24
inDegrees=yes

Units are S.I. units (second, meters, Newtons, ...)
Angles are in degrees.

endheader
time	pelvis_tilt	pelvis_list	pelvis_rotation	pelvis_tx	pelvis_ty	pelvis_tz	hip_flexion_r	hip_adduction_r	hip_rotation_r	knee_angle_r	ankle_angle_r	subtalar_angle_r	mtp_angle_r	hip_flexion_l	hip_adduction_l	hip_rotation_l	knee_angle_l	ankle_angle_l	subtalar_angle_l	mtp_angle_l	lumbar_extension	lumbar_bending	lumbar_rotation
      1.51500000	    -10.12224963	     -2.01575751	      6.74379273	     -0.24004283	      1.27833999	     -0.93447239	     35.63653710	      1.47798205	     -0.92871046	    -28.82842516	     -0.05482933	    -21.73894579	      3.05392770	      3.61559443	      6.78722337	     19.34084913	     -5.35722561	      6.52515651	    -14.69496152	      1.69285740	     -0.73574861	     -0.10804980	    -13.90072900
      1.52000000	    -10.23462738	     -1.78338857	      6.27567416	     -0.23373277	      1.27736070	     -0.93348092	     35.84968628	      1.66168008	      0.17010134	    -27.28792061	     -0.32724454	    -22.13349304	      2.75243758	      3.13803182	      6.89254627	     18.53181246	     -5.15466071	      6.97650880	    -14.24483558	      2.00394671	     -0.56698959	     -0.37509500	    -13.42712128
      1.52500000	    -10.35264597	     -1.54925749	      5.80950888	     -0.22741370	      1.27634037	     -0.93246671	     36.03795119	      1.83806380	      1.27077747	    -25.71808577	     -0.58199472	    -22.46055872	      2.43601010	      2.67323256	      7.00888145	     17.71631067	     -4.96390801	      7.41159823	    -13.76858584	      2.32133155	     -0.38481270	     -0.64344723	    -12.95391774
      1.53000000	    -10.47394572	     -1.30926947	      5.35535347	     -0.22109606	      1.27526826	     -0.93143474	     36.20182050	      1.99441317	      2.36227270	    -24.12904047	     -0.77511441	    -22.66611158	      2.14357036	      2.20414517	      7.13680294	     16.91355376	     -4.75171715	      7.80470361	    -13.31217738	      2.60858294	     -0.20158176	     -0.92329633	    -12.50722405
      1.53500000	    -10.58917368	     -1.08448420	      4.90942240	     -0.21476172	      1.27417989	     -0.93041734	     36.30365712	      2.15242292	      3.44978000	    -22.46423592	     -1.06826524	    -22.84723824	      1.81956188	      1.76665041	      7.26623458	     16.07969818	     -4.61924449	      8.26612088	    -12.76588088	      2.95144538	     -0.00175484	     -1.18052479	    -12.01214565
      1.54000000	    -10.70191379	     -0.85256159	      4.48688730	     -0.20840803	      1.27304710	     -0.92940210	     36.35834178	      2.28033822	      4.53367227	    -20.75819386	     -1.31256648	    -22.92348215	      1.54759193	      1.31229225	      7.40733602	     15.26895565	     -4.45444107	      8.67101615	    -12.23418416	      3.27002327	      0.19356057	     -1.44741483	    -11.57286723
      1.54500000	    -10.81396645	     -0.61755007	      4.09022263	     -0.20203169	      1.27187114	     -0.92840780	     36.36266242	      2.37328053	      5.59126050	    -18.99884149	     -1.60750120	    -22.90230923	      1.32908927	      0.87485129	      7.56600932	     14.46825380	     -4.32837581	      9.07380252	    -11.70465773	      3.58669291	      0.40130569	     -1.72102366	    -11.12955132
      1.55000000	    -10.93076820	     -0.36225509	      3.71204550	     -0.19561573	      1.27062540	     -0.92742987	     36.34635452	      2.42179233	      6.65391989	    -17.24442242	     -1.84141265	    -22.73539780	      1.19049794	      0.41400563	      7.75114248	     13.72643311	     -4.14911718	      9.41028401	    -11.24380189	      3.86028995	      0.61894937	     -2.00980780	    -10.74858826
      1.55500000	    -11.05288332	     -0.11669435	      3.37661459	     -0.18922120	      1.26933995	     -0.92649076	     36.30112653	      2.43557467	      7.65736082	    -15.46315074	     -2.22832435	    -22.55322408	      1.05867313	      0.02865644	      7.94694364	     12.94683040	     -4.10321405	      9.84708821	    -10.62812657	      4.23274445	      0.84582658	     -2.29859847	    -10.32773884
      1.56000000	    -11.18072889	      0.15788564	      3.04978955	     -0.18280576	      1.26799212	     -0.92556965	     36.27747725	      2.40407534	      8.65703565	    -13.77295502	     -2.47526247	    -22.17158069	      0.99393413	     -0.38336780	      8.17867014	     12.23223581	     -3.99279508	     10.17047955	    -10.15364586	      4.52573930	      1.08410467	     -2.60625716	     -9.97638852
      1.56500000	    -11.32738329	      0.41765526	      2.76197017	     -0.17638529	      1.26661543	     -0.92469729	     36.26492349	      2.34756504	      9.56893140	    -12.12237017	     -2.75333741	    -21.72867142	      0.93696158	     -0.72440313	      8.41087617	     11.50343820	     -3.97787809	     10.53542517	     -9.60029773	      4.87432029	      1.34986411	     -2.90628497	     -9.60073727
      1.57000000	    -11.46501147	      0.68670031	      2.48582092	     -0.16997888	      1.26522284	     -0.92389349	     36.27439672	      2.26368961	     10.42820628	    -10.59720396	     -2.90923783	    -21.10239921	      0.92829900	     -1.10660886	      8.66238904	     10.88574115	     -3.89390435	     10.71563824	     -9.33978834	      5.04714580	      1.60439433	     -3.20018117	     -9.21894449
